<?xml version="1.0" encoding="UTF-8" standalone="no"?>
<!-- Created with Inkscape (http://www.inkscape.org/) -->

<svg
   version="1.1"
   id="svg1"
   width="542.40002"
   height="484.79999"
   viewBox="0 0 542.40002 484.79999"
   sodipodi:docname="Logo CryptoCapi Def1 azulclaro.svg"
   xml:space="preserve"
   inkscape:version="1.4.2 (f4327f4, 2025-05-13)"
   xmlns:inkscape="http://www.inkscape.org/namespaces/inkscape"
   xmlns:sodipodi="http://sodipodi.sourceforge.net/DTD/sodipodi-0.dtd"
   xmlns="http://www.w3.org/2000/svg"
   xmlns:svg="http://www.w3.org/2000/svg"><defs
     id="defs1" /><sodipodi:namedview
     id="namedview1"
     pagecolor="#ffffff"
     bordercolor="#666666"
     borderopacity="1.0"
     inkscape:showpageshadow="2"
     inkscape:pageopacity="0.0"
     inkscape:pagecheckerboard="0"
     inkscape:deskcolor="#d1d1d1"
     inkscape:zoom="3.2301981"
     inkscape:cx="263.9157"
     inkscape:cy="241.93563"
     inkscape:window-width="1920"
     inkscape:window-height="1001"
     inkscape:window-x="-9"
     inkscape:window-y="-9"
     inkscape:window-maximized="1"
     inkscape:current-layer="g1" /><g
     inkscape:groupmode="layer"
     inkscape:label="Image"
     id="g1"><path
       style="fill:#d5e5ff"
       d="m 240.51394,321.33947 c -66.03881,-5.75113 -104.44911,-77.83389 -72.84395,-136.70269 32.37647,-60.30549 120.60834,-64.65665 158.93919,-7.83811 44.22606,65.55712 -6.92701,151.43533 -86.09524,144.5408 z m 21.05693,-4.73057 c 73.52088,-10.45281 103.02316,-99.67555 49.87009,-150.82044 -45.83321,-44.10158 -121.70853,-27.76484 -144.56123,31.12552 -24.42225,62.93503 27.98365,129.17904 94.69114,119.69492 z m -23.38263,-3.69616 c -0.7099,-0.28733 -0.43561,-1.47721 0.98826,-4.28709 l 1.97089,-3.88936 3.81174,2.08544 c 2.09645,1.147 3.91926,2.16213 4.05067,2.25585 3.45758,2.46578 -5.95935,5.80314 -10.82156,3.83516 z m 14.56252,-2.41102 0.41824,-3.33506 -6.91746,-3.67988 c -3.8046,-2.02394 -6.98557,-3.58316 -7.06882,-3.46495 -0.0833,0.11822 -1.27336,2.64987 -2.6447,5.62589 -3.22651,7.00206 -5.02562,7.3099 -16.46359,2.81709 l -2.29644,-0.90204 0.50387,-4.9181 c 0.87111,-8.50255 -1.14475,-16.97072 -6.66244,-27.98732 -6.04402,-12.06748 -7.20817,-18.05268 -5.81723,-29.90793 1.45724,-12.42029 -0.33561,-11.50289 28.35359,-14.50851 15.2619,-1.59892 25.2553,-8.37027 30.11312,-20.40413 2.05923,-5.10115 2.15539,-3.59942 0.17664,2.75834 -3.17303,10.19494 -8.57226,16.58462 -22.14627,26.20881 -13.05969,9.25953 -20.32841,18.66708 -20.32841,26.31007 0,2.64459 -0.99735,1.94323 -4.45889,-3.1356 -2.45229,-3.59804 -2.75549,-3.82663 -2.31009,-1.74163 3.30647,15.4784 11.99292,25.16292 27.71673,30.9014 3.55297,1.29667 6.57854,2.23899 6.72349,2.09404 0.49885,-0.49885 -2.16721,-9.56692 -4.13885,-14.07747 l -1.97487,-4.51797 2.0198,2.4 c 7.59703,9.02705 11.37646,26.21523 7.65202,34.8 -0.75551,1.74144 -0.81362,1.56884 -0.44944,-1.33505 z m 21.22011,-0.61046 c 0,-0.19003 1.39212,-3.16003 3.09361,-6.6 4.10334,-8.29592 5.76766,-13.60493 6.43478,-20.52628 l 0.55212,-5.72821 0.64238,5.81443 c 0.62667,5.67211 -0.74134,14.65519 -2.86079,18.78557 -0.73477,1.4319 1.06616,1.88338 6.35613,1.59344 3.19701,-0.17522 1.18787,1.15616 -6.21754,4.12012 -7.34869,2.94126 -8.00069,3.14833 -8.00069,2.54093 z m -65.11239,-6.47737 C 141.43206,267.42393 153.8192,167.42137 228.20622,147.2178 c 56.70577,-15.40134 114.24769,34.93319 105.82064,92.56612 -1.48471,10.15397 -1.76254,10.56984 -4.25167,6.36408 -3.55432,-6.00555 -9.80669,-12.25965 -19.99623,-20.00173 -16.29831,-12.38358 -20.94303,-17.45906 -27.00496,-29.50949 -3.17647,-6.31445 -6.54308,-11.3082 -10.58212,-15.6966 -2.69384,-2.92684 -2.89291,-3.41381 -1.77483,-4.34173 4.33684,-3.59926 4.6345,-9.62921 0.75382,-15.27073 -1.54,-2.23876 -2.8,-4.67809 -2.8,-5.42071 0,-5.17612 -8.71919,-3.75283 -15.71202,2.56477 l -3.09281,2.79417 -9.91748,-0.32411 -9.91747,-0.32411 -1.13326,-2.19048 c -3.89022,-7.5194 -9.70258,-6.56907 -14.12712,2.30983 -1.88013,3.77294 -2.49713,4.28905 -7.97349,6.66972 -11.94986,5.19481 -28.46883,18.71265 -31.95671,26.15088 -3.85838,8.22837 2.21387,33.78053 8.83092,37.16068 1.63486,0.83513 3.64033,2.33561 4.45659,3.3344 2.15415,2.63585 5.39515,4.08216 10.48919,4.68087 l 4.48416,0.52702 -0.56549,2.88806 c -2.06725,10.55785 0.0982,22.65386 6.14393,34.3199 4.28896,8.27608 6.36212,15.8875 6.36491,23.36816 0.002,6.23733 -0.42073,6.49442 -5.88624,3.57712 z m -13.68762,-72.72873 c -3.08,-0.48456 -7.04,-1.52941 -8.8,-2.32189 l -3.2,-1.44086 2.03648,-1.08269 2.03647,-1.08268 -0.58701,-5.86013 c -1.30443,-13.02199 -0.67652,-14.17304 1.86054,-3.41063 1.85862,7.88441 3.49311,10.13127 8.35134,11.48022 5.36402,1.48938 13.16077,0.0915 15.55058,-2.78804 0.52113,-0.62793 1.33079,-1.14168 1.79923,-1.14168 1.19059,0 -3.34501,4.61071 -6.24763,6.35109 -3.35802,2.01344 -6.33205,2.31486 -12.8,1.29729 z m -16.14995,-25.07767 c -1.28478,-0.81591 -2.81275,-4.99281 -2.30781,-6.30867 1.14193,-2.97581 5.63871,1.0902 5.11946,4.62904 -0.2888,1.96829 -1.35457,2.60496 -2.81165,1.67963 z m 13.2866,-0.64705 c -1.31552,-1.58511 0.47571,-5.35006 2.75413,-5.78885 2.67018,-0.51423 5.30922,0.6193 5.30922,2.28043 0,3.76436 -5.76805,6.27408 -8.06335,3.50842 z M 234.57087,186.454 c -3.77226,-0.39459 -3.75337,-0.95043 0.15226,-4.47893 3.46997,-3.13491 7.36932,-4.26911 10.44774,-3.03894 1.1,0.43958 1.58908,0.82205 1.08686,0.84994 -0.50223,0.0279 -1.47058,1.44388 -2.15189,3.14665 -1.24136,3.10246 -2.70656,4.22088 -5.2004,3.96957 -0.73402,-0.074 -2.68457,-0.27569 -4.33457,-0.44829 z m 22.60773,-9.5962 -3.48027,-2.97898 1.93627,-0.48684 c 2.26067,-0.5684 4.11346,-0.0891 3.49898,0.90513 -0.23546,0.38097 0.13586,1.78325 0.82514,3.11617 1.59258,3.07972 1.42849,3.04694 -2.78012,-0.55548 z m -4.80773,-6.10319 c 0,-1.67504 4.66425,-7.54615 7.97102,-10.03348 l 2.77103,-2.08435 -2.63567,3.31383 c -1.44963,1.82261 -3.11081,4.70261 -3.69153,6.4 -1.07934,3.15483 -4.41485,4.9711 -4.41485,2.404 z"
       id="path1"
       sodipodi:nodetypes="sssssssssscscsscsssscssssssssssssscsssssscsssssssssssssssscccssssssscsscssscccssssssssssssssssssssssscsssssscsss" /></g></svg>
